# xmcd CD database file
#
# Track frame offsets:
#	150
#	11560
#	27530
#	48767
#	69312
#	82315
#	95695
#	110545
#	123762
#	142630
#	154285
#	168075
#	182725
#	197455
#	210455
#	231560
#	248975
#	267262
#	285725
#	296322
#	309152
#	323882
#
# Disc length: 4475 seconds
#
# Revision: 0
# Processed by: cddbd v1.5.2PL0 Copyright (c) Steve Scherf et al.
# Submitted via: CDex 1.70beta2
#
DISCID=31117916
DTITLE=Jones Classic Country - Jones Classic Country CCC-623
DYEAR=0000
DGENRE=Country
TTITLE0=George Jones/She's My Rock
TTITLE1=Ronnie Milsap/Only One Love In My Life
TTITLE2=Gary Morris/Wind Beneath My Wings
TTITLE3=Willie Nelson/Angel Flying Too Close To The Ground
TTITLE4=Willie Nelson/Forgiving You Was Easy
TTITLE5=Charley Pride/She's Too Good To Be True
TTITLE6=Marty Robbins/Don't Worry
TTITLE7=Mel Tillis/Good Woman Blues
TTITLE8=Gene Watson/Farewell Party
TTITLE9=Gene Watson/Should I Come Home (Or Should I Go Crazy)
TTITLE10=Don Williams/I Wouldn't Want To Live If You Didn't Love Me
TTITLE11=Don Williams/If Hollywood Don't Need You
TTITLE12=Don Williams/Listen To The Radio
TTITLE13=Don Williams/Mistakes
TTITLE14=Hank Williams Jr/Ain't Misbehavin'
TTITLE15=Hank Williams Jr/All For The Love Of Sunshine
TTITLE16=Hank Williams Jr/All My Rowdy Friends (Have Settled Down)
TTITLE17=Hank Williams Jr/Country State Of Mind
TTITLE18=Hank Williams Jr/Honky Tonkin'
TTITLE19=Hank Williams Jr/If Heaven Ain't A Lot Like Dixie
TTITLE20=Hank Williams Jr/Whiskey Bent And Hell Bound
TTITLE21=Tammy Wynette/Good Lovin' (Makes It Right)
EXTD=YEAR: 0000
EXTT0=
EXTT1=
EXTT2=
EXTT3=
EXTT4=
EXTT5=
EXTT6=
EXTT7=
EXTT8=
EXTT9=
EXTT10=
EXTT11=
EXTT12=
EXTT13=
EXTT14=
EXTT15=
EXTT16=
EXTT17=
EXTT18=
EXTT19=
EXTT20=
EXTT21=
PLAYORDER=
